<svg xmlns="http://www.w3.org/2000/svg" width="640" height="180" viewBox="0 0 640 180" font-family="sans-serif" font-size="11">
<rect width="640" height="180" fill="#ffffff"/>
<text x="36" y="16" font-size="13" font-weight="bold" fill="#222">bench.lua_think_50_hooks_ms</text>
<text x="604" y="16" text-anchor="end" fill="#666">lower is better</text>
<line x1="36" y1="144" x2="604" y2="144" stroke="#ccc"/>
<text x="32" y="40.0" text-anchor="end" fill="#666">0.3634</text>
<text x="32" y="144.0" text-anchor="end" fill="#666">0.0000</text>
<text x="36" y="160" fill="#666">09e1a9e</text>
<text x="604" y="160" text-anchor="end" fill="#666">0ef01e4</text>
<path d="M36.0,59.8 L53.2,58.4 L70.4,59.9 L87.6,61.7 L104.8,57.8 L122.1,58.2 L139.3,76.5 L156.5,60.2 L173.7,59.5 L190.9,81.4 L208.1,64.6 L225.3,66.9 L242.5,63.2 L259.8,57.4 L277.0,58.0 L294.2,79.2 L311.4,59.0 L328.6,51.7 L345.8,77.0 L363.0,76.2 L380.2,54.1 L397.5,53.4 L414.7,50.7 L431.9,79.6 L449.1,78.0 L466.3,50.1 L483.5,79.9 L500.7,51.4 L517.9,50.4 L535.2,89.5 L552.4,75.3 L569.6,97.1 L586.8,100.4 L604.0,52.2" fill="none" stroke="#2563eb" stroke-width="2"/>
<g fill="#2563eb"><circle cx="36.0" cy="59.8" r="2.5"><title>09e1a9e: 0.2832</title></circle><circle cx="53.2" cy="58.4" r="2.5"><title>c1360ad: 0.2882</title></circle><circle cx="70.4" cy="59.9" r="2.5"><title>cc93bb6: 0.2829</title></circle><circle cx="87.6" cy="61.7" r="2.5"><title>0f9f717: 0.2768</title></circle><circle cx="104.8" cy="57.8" r="2.5"><title>60ebebc: 0.2900</title></circle><circle cx="122.1" cy="58.2" r="2.5"><title>b997491: 0.2889</title></circle><circle cx="139.3" cy="76.5" r="2.5"><title>9e8a68a: 0.2270</title></circle><circle cx="156.5" cy="60.2" r="2.5"><title>3c58296: 0.2821</title></circle><circle cx="173.7" cy="59.5" r="2.5"><title>17a3e38: 0.2844</title></circle><circle cx="190.9" cy="81.4" r="2.5"><title>9a8bda9: 0.2108</title></circle><circle cx="208.1" cy="64.6" r="2.5"><title>f794eb8: 0.2672</title></circle><circle cx="225.3" cy="66.9" r="2.5"><title>7d49a68: 0.2596</title></circle><circle cx="242.5" cy="63.2" r="2.5"><title>1d042a7: 0.2718</title></circle><circle cx="259.8" cy="57.4" r="2.5"><title>766b2b9: 0.2914</title></circle><circle cx="277.0" cy="58.0" r="2.5"><title>36662ef: 0.2892</title></circle><circle cx="294.2" cy="79.2" r="2.5"><title>ac01df0: 0.2182</title></circle><circle cx="311.4" cy="59.0" r="2.5"><title>6b1898d: 0.2860</title></circle><circle cx="328.6" cy="51.7" r="2.5"><title>099f05b: 0.3107</title></circle><circle cx="345.8" cy="77.0" r="2.5"><title>f661b50: 0.2254</title></circle><circle cx="363.0" cy="76.2" r="2.5"><title>436abba: 0.2282</title></circle><circle cx="380.2" cy="54.1" r="2.5"><title>7b855bb: 0.3026</title></circle><circle cx="397.5" cy="53.4" r="2.5"><title>4fe672c: 0.3048</title></circle><circle cx="414.7" cy="50.7" r="2.5"><title>fefc713: 0.3141</title></circle><circle cx="431.9" cy="79.6" r="2.5"><title>25060fd: 0.2167</title></circle><circle cx="449.1" cy="78.0" r="2.5"><title>dc1e2d4: 0.2222</title></circle><circle cx="466.3" cy="50.1" r="2.5"><title>2436f47: 0.3160</title></circle><circle cx="483.5" cy="79.9" r="2.5"><title>4b50ba0: 0.2156</title></circle><circle cx="500.7" cy="51.4" r="2.5"><title>2ed140d: 0.3117</title></circle><circle cx="517.9" cy="50.4" r="2.5"><title>34fadf2: 0.3148</title></circle><circle cx="535.2" cy="89.5" r="2.5"><title>c88665f: 0.1835</title></circle><circle cx="552.4" cy="75.3" r="2.5"><title>cfcea7d: 0.2311</title></circle><circle cx="569.6" cy="97.1" r="2.5"><title>ac90faa: 0.1578</title></circle><circle cx="586.8" cy="100.4" r="2.5"><title>13cc7c3: 0.1466</title></circle><circle cx="604.0" cy="52.2" r="2.5"><title>0ef01e4: 0.3089</title></circle></g>
</svg>
