<svg xmlns="http://www.w3.org/2000/svg" width="640" height="180" viewBox="0 0 640 180" font-family="sans-serif" font-size="11">
<rect width="640" height="180" fill="#ffffff"/>
<text x="36" y="16" font-size="13" font-weight="bold" fill="#222">bench.rigid_crates_400_ms</text>
<text x="604" y="16" text-anchor="end" fill="#666">lower is better</text>
<line x1="36" y1="144" x2="604" y2="144" stroke="#ccc"/>
<text x="32" y="40.0" text-anchor="end" fill="#666">2.15</text>
<text x="32" y="144.0" text-anchor="end" fill="#666">0.0000</text>
<text x="36" y="160" fill="#666">09e1a9e</text>
<text x="604" y="160" text-anchor="end" fill="#666">4c9dede</text>
<path d="M36.0,63.9 L50.2,63.4 L64.4,63.8 L78.6,63.7 L92.8,58.5 L107.0,64.2 L121.2,67.6 L135.4,62.9 L149.6,60.6 L163.8,77.2 L178.0,56.6 L192.2,55.6 L206.4,50.1 L220.6,58.3 L234.8,54.2 L249.0,74.7 L263.2,62.5 L277.4,61.6 L291.6,77.7 L305.8,72.4 L320.0,60.7 L334.2,62.6 L348.4,62.5 L362.6,75.2 L376.8,75.5 L391.0,64.3 L405.2,75.6 L419.4,63.9 L433.6,63.8 L447.8,88.8 L462.0,72.3 L476.2,94.5 L490.4,90.2 L504.6,63.5 L518.8,75.3 L533.0,63.4 L547.2,66.9 L561.4,75.8 L575.6,64.2 L589.8,56.1 L604.0,64.2" fill="none" stroke="#2563eb" stroke-width="2"/>
<g fill="#2563eb"><circle cx="36.0" cy="63.9" r="2.5"><title>09e1a9e: 1.59</title></circle><circle cx="50.2" cy="63.4" r="2.5"><title>c1360ad: 1.60</title></circle><circle cx="64.4" cy="63.8" r="2.5"><title>cc93bb6: 1.60</title></circle><circle cx="78.6" cy="63.7" r="2.5"><title>0f9f717: 1.60</title></circle><circle cx="92.8" cy="58.5" r="2.5"><title>60ebebc: 1.70</title></circle><circle cx="107.0" cy="64.2" r="2.5"><title>b997491: 1.59</title></circle><circle cx="121.2" cy="67.6" r="2.5"><title>9e8a68a: 1.52</title></circle><circle cx="135.4" cy="62.9" r="2.5"><title>3c58296: 1.61</title></circle><circle cx="149.6" cy="60.6" r="2.5"><title>17a3e38: 1.66</title></circle><circle cx="163.8" cy="77.2" r="2.5"><title>9a8bda9: 1.33</title></circle><circle cx="178.0" cy="56.6" r="2.5"><title>f794eb8: 1.74</title></circle><circle cx="192.2" cy="55.6" r="2.5"><title>7d49a68: 1.76</title></circle><circle cx="206.4" cy="50.1" r="2.5"><title>1d042a7: 1.87</title></circle><circle cx="220.6" cy="58.3" r="2.5"><title>766b2b9: 1.71</title></circle><circle cx="234.8" cy="54.2" r="2.5"><title>36662ef: 1.79</title></circle><circle cx="249.0" cy="74.7" r="2.5"><title>ac01df0: 1.38</title></circle><circle cx="263.2" cy="62.5" r="2.5"><title>6b1898d: 1.62</title></circle><circle cx="277.4" cy="61.6" r="2.5"><title>099f05b: 1.64</title></circle><circle cx="291.6" cy="77.7" r="2.5"><title>f661b50: 1.32</title></circle><circle cx="305.8" cy="72.4" r="2.5"><title>436abba: 1.43</title></circle><circle cx="320.0" cy="60.7" r="2.5"><title>7b855bb: 1.66</title></circle><circle cx="334.2" cy="62.6" r="2.5"><title>4fe672c: 1.62</title></circle><circle cx="348.4" cy="62.5" r="2.5"><title>fefc713: 1.62</title></circle><circle cx="362.6" cy="75.2" r="2.5"><title>25060fd: 1.37</title></circle><circle cx="376.8" cy="75.5" r="2.5"><title>dc1e2d4: 1.36</title></circle><circle cx="391.0" cy="64.3" r="2.5"><title>2436f47: 1.59</title></circle><circle cx="405.2" cy="75.6" r="2.5"><title>4b50ba0: 1.36</title></circle><circle cx="419.4" cy="63.9" r="2.5"><title>2ed140d: 1.59</title></circle><circle cx="433.6" cy="63.8" r="2.5"><title>34fadf2: 1.60</title></circle><circle cx="447.8" cy="88.8" r="2.5"><title>c88665f: 1.10</title></circle><circle cx="462.0" cy="72.3" r="2.5"><title>cfcea7d: 1.43</title></circle><circle cx="476.2" cy="94.5" r="2.5"><title>ac90faa: 0.9864</title></circle><circle cx="490.4" cy="90.2" r="2.5"><title>13cc7c3: 1.07</title></circle><circle cx="504.6" cy="63.5" r="2.5"><title>0ef01e4: 1.60</title></circle><circle cx="518.8" cy="75.3" r="2.5"><title>2c9023d: 1.37</title></circle><circle cx="533.0" cy="63.4" r="2.5"><title>43584eb: 1.61</title></circle><circle cx="547.2" cy="66.9" r="2.5"><title>5ee83ef: 1.53</title></circle><circle cx="561.4" cy="75.8" r="2.5"><title>eb9fae6: 1.36</title></circle><circle cx="575.6" cy="64.2" r="2.5"><title>8cc7549: 1.59</title></circle><circle cx="589.8" cy="56.1" r="2.5"><title>b8da148: 1.75</title></circle><circle cx="604.0" cy="64.2" r="2.5"><title>4c9dede: 1.59</title></circle></g>
</svg>
