<svg xmlns="http://www.w3.org/2000/svg" width="640" height="180" viewBox="0 0 640 180" font-family="sans-serif" font-size="11">
<rect width="640" height="180" fill="#ffffff"/>
<text x="36" y="16" font-size="13" font-weight="bold" fill="#222">bench.cloth_16x24_basic_ms</text>
<text x="604" y="16" text-anchor="end" fill="#666">lower is better</text>
<line x1="36" y1="144" x2="604" y2="144" stroke="#ccc"/>
<text x="32" y="40.0" text-anchor="end" fill="#666">5.49</text>
<text x="32" y="144.0" text-anchor="end" fill="#666">0.0000</text>
<text x="36" y="160" fill="#666">c34ca0a</text>
<text x="604" y="160" text-anchor="end" fill="#666">6c00d7a</text>
<path d="M36.0,52.9 L48.9,53.2 L61.8,84.3 L74.7,51.7 L87.6,51.4 L100.5,63.5 L113.5,53.2 L126.4,63.6 L139.3,71.1 L152.2,52.2 L165.1,50.2 L178.0,52.3 L190.9,52.7 L203.8,82.8 L216.7,86.3 L229.6,86.9 L242.5,52.1 L255.5,71.0 L268.4,51.0 L281.3,52.7 L294.2,64.5 L307.1,53.2 L320.0,52.3 L332.9,51.4 L345.8,51.9 L358.7,53.7 L371.6,71.0 L384.5,52.9 L397.5,51.9 L410.4,64.8 L423.3,50.1 L436.2,52.0 L449.1,86.9 L462.0,52.6 L474.9,64.6 L487.8,52.5 L500.7,82.4 L513.6,71.1 L526.5,78.9 L539.5,86.7 L552.4,68.3 L565.3,53.3 L578.2,84.2 L591.1,52.7 L604.0,86.3" fill="none" stroke="#2563eb" stroke-width="2"/>
<g fill="#2563eb"><circle cx="36.0" cy="52.9" r="2.5"><title>c34ca0a: 4.63</title></circle><circle cx="48.9" cy="53.2" r="2.5"><title>3a66f47: 4.62</title></circle><circle cx="61.8" cy="84.3" r="2.5"><title>92a4b38: 3.04</title></circle><circle cx="74.7" cy="51.7" r="2.5"><title>aa5835f: 4.69</title></circle><circle cx="87.6" cy="51.4" r="2.5"><title>1eb5f22: 4.71</title></circle><circle cx="100.5" cy="63.5" r="2.5"><title>1ea8b6d: 4.09</title></circle><circle cx="113.5" cy="53.2" r="2.5"><title>d7e2dba: 4.62</title></circle><circle cx="126.4" cy="63.6" r="2.5"><title>6daf1b7: 4.09</title></circle><circle cx="139.3" cy="71.1" r="2.5"><title>08f89a3: 3.71</title></circle><circle cx="152.2" cy="52.2" r="2.5"><title>688fc03: 4.67</title></circle><circle cx="165.1" cy="50.2" r="2.5"><title>52d4ac4: 4.77</title></circle><circle cx="178.0" cy="52.3" r="2.5"><title>37c0ad1: 4.66</title></circle><circle cx="190.9" cy="52.7" r="2.5"><title>f15c3a1: 4.64</title></circle><circle cx="203.8" cy="82.8" r="2.5"><title>f34abdd: 3.11</title></circle><circle cx="216.7" cy="86.3" r="2.5"><title>be90a93: 2.93</title></circle><circle cx="229.6" cy="86.9" r="2.5"><title>9b9ace6: 2.91</title></circle><circle cx="242.5" cy="52.1" r="2.5"><title>1ac71ef: 4.67</title></circle><circle cx="255.5" cy="71.0" r="2.5"><title>f313161: 3.71</title></circle><circle cx="268.4" cy="51.0" r="2.5"><title>5b0ce78: 4.73</title></circle><circle cx="281.3" cy="52.7" r="2.5"><title>6dd27fd: 4.64</title></circle><circle cx="294.2" cy="64.5" r="2.5"><title>48702ed: 4.04</title></circle><circle cx="307.1" cy="53.2" r="2.5"><title>920a932: 4.62</title></circle><circle cx="320.0" cy="52.3" r="2.5"><title>7d33f4c: 4.66</title></circle><circle cx="332.9" cy="51.4" r="2.5"><title>01eec85: 4.71</title></circle><circle cx="345.8" cy="51.9" r="2.5"><title>d15ebcd: 4.68</title></circle><circle cx="358.7" cy="53.7" r="2.5"><title>417c735: 4.59</title></circle><circle cx="371.6" cy="71.0" r="2.5"><title>ef5c691: 3.71</title></circle><circle cx="384.5" cy="52.9" r="2.5"><title>9b18274: 4.63</title></circle><circle cx="397.5" cy="51.9" r="2.5"><title>3629d46: 4.68</title></circle><circle cx="410.4" cy="64.8" r="2.5"><title>1f712b6: 4.03</title></circle><circle cx="423.3" cy="50.1" r="2.5"><title>666405e: 4.77</title></circle><circle cx="436.2" cy="52.0" r="2.5"><title>3af7072: 4.68</title></circle><circle cx="449.1" cy="86.9" r="2.5"><title>abf532c: 2.90</title></circle><circle cx="462.0" cy="52.6" r="2.5"><title>bff4391: 4.65</title></circle><circle cx="474.9" cy="64.6" r="2.5"><title>f336057: 4.04</title></circle><circle cx="487.8" cy="52.5" r="2.5"><title>e0936b9: 4.65</title></circle><circle cx="500.7" cy="82.4" r="2.5"><title>1265a85: 3.13</title></circle><circle cx="513.6" cy="71.1" r="2.5"><title>9410bd4: 3.71</title></circle><circle cx="526.5" cy="78.9" r="2.5"><title>944378f: 3.31</title></circle><circle cx="539.5" cy="86.7" r="2.5"><title>5a80bad: 2.91</title></circle><circle cx="552.4" cy="68.3" r="2.5"><title>ab17e8c: 3.85</title></circle><circle cx="565.3" cy="53.3" r="2.5"><title>f7b8519: 4.61</title></circle><circle cx="578.2" cy="84.2" r="2.5"><title>ab70cfd: 3.04</title></circle><circle cx="591.1" cy="52.7" r="2.5"><title>105ee96: 4.64</title></circle><circle cx="604.0" cy="86.3" r="2.5"><title>6c00d7a: 2.93</title></circle></g>
</svg>
