<svg xmlns="http://www.w3.org/2000/svg" width="640" height="180" viewBox="0 0 640 180" font-family="sans-serif" font-size="11">
<rect width="640" height="180" fill="#ffffff"/>
<text x="36" y="16" font-size="13" font-weight="bold" fill="#222">bench.cloth_16x24_full_ms</text>
<text x="604" y="16" text-anchor="end" fill="#666">lower is better</text>
<line x1="36" y1="144" x2="604" y2="144" stroke="#ccc"/>
<text x="32" y="40.0" text-anchor="end" fill="#666">11.93</text>
<text x="32" y="144.0" text-anchor="end" fill="#666">0.0000</text>
<text x="36" y="160" fill="#666">c34ca0a</text>
<text x="604" y="160" text-anchor="end" fill="#666">f34abdd</text>
<path d="M36.0,52.4 L79.7,55.4 L123.4,90.2 L167.1,55.4 L210.8,55.3 L254.5,54.8 L298.2,55.6 L341.8,58.2 L385.5,74.2 L429.2,50.1 L472.9,54.6 L516.6,63.4 L560.3,65.5 L604.0,92.5" fill="none" stroke="#2563eb" stroke-width="2"/>
<g fill="#2563eb"><circle cx="36.0" cy="52.4" r="2.5"><title>c34ca0a: 10.11</title></circle><circle cx="79.7" cy="55.4" r="2.5"><title>3a66f47: 9.79</title></circle><circle cx="123.4" cy="90.2" r="2.5"><title>92a4b38: 5.94</title></circle><circle cx="167.1" cy="55.4" r="2.5"><title>aa5835f: 9.78</title></circle><circle cx="210.8" cy="55.3" r="2.5"><title>1eb5f22: 9.79</title></circle><circle cx="254.5" cy="54.8" r="2.5"><title>1ea8b6d: 9.85</title></circle><circle cx="298.2" cy="55.6" r="2.5"><title>d7e2dba: 9.76</title></circle><circle cx="341.8" cy="58.2" r="2.5"><title>6daf1b7: 9.47</title></circle><circle cx="385.5" cy="74.2" r="2.5"><title>08f89a3: 7.71</title></circle><circle cx="429.2" cy="50.1" r="2.5"><title>688fc03: 10.37</title></circle><circle cx="472.9" cy="54.6" r="2.5"><title>52d4ac4: 9.87</title></circle><circle cx="516.6" cy="63.4" r="2.5"><title>37c0ad1: 8.90</title></circle><circle cx="560.3" cy="65.5" r="2.5"><title>f15c3a1: 8.66</title></circle><circle cx="604.0" cy="92.5" r="2.5"><title>f34abdd: 5.68</title></circle></g>
</svg>
