<svg xmlns="http://www.w3.org/2000/svg" width="640" height="180" viewBox="0 0 640 180" font-family="sans-serif" font-size="11">
<rect width="640" height="180" fill="#ffffff"/>
<text x="36" y="16" font-size="13" font-weight="bold" fill="#222">bench.cloth_cape_basic_ms</text>
<text x="604" y="16" text-anchor="end" fill="#666">lower is better</text>
<line x1="36" y1="144" x2="604" y2="144" stroke="#ccc"/>
<text x="32" y="40.0" text-anchor="end" fill="#666">0.5985</text>
<text x="32" y="144.0" text-anchor="end" fill="#666">0.0000</text>
<text x="36" y="160" fill="#666">37c0ad1</text>
<text x="604" y="160" text-anchor="end" fill="#666">666405e</text>
<path d="M36.0,54.0 L65.9,53.5 L95.8,84.3 L125.7,88.1 L155.6,88.2 L185.5,52.8 L215.4,72.7 L245.3,50.1 L275.2,53.8 L305.1,66.1 L334.9,53.9 L364.8,52.9 L394.7,51.0 L424.6,52.0 L454.5,55.3 L484.4,72.8 L514.3,53.8 L544.2,52.3 L574.1,66.0 L604.0,51.5" fill="none" stroke="#2563eb" stroke-width="2"/>
<g fill="#2563eb"><circle cx="36.0" cy="54.0" r="2.5"><title>37c0ad1: 0.4990</title></circle><circle cx="65.9" cy="53.5" r="2.5"><title>f15c3a1: 0.5013</title></circle><circle cx="95.8" cy="84.3" r="2.5"><title>f34abdd: 0.3311</title></circle><circle cx="125.7" cy="88.1" r="2.5"><title>be90a93: 0.3097</title></circle><circle cx="155.6" cy="88.2" r="2.5"><title>9b9ace6: 0.3091</title></circle><circle cx="185.5" cy="52.8" r="2.5"><title>1ac71ef: 0.5055</title></circle><circle cx="215.4" cy="72.7" r="2.5"><title>f313161: 0.3949</title></circle><circle cx="245.3" cy="50.1" r="2.5"><title>5b0ce78: 0.5205</title></circle><circle cx="275.2" cy="53.8" r="2.5"><title>6dd27fd: 0.4999</title></circle><circle cx="305.1" cy="66.1" r="2.5"><title>48702ed: 0.4317</title></circle><circle cx="334.9" cy="53.9" r="2.5"><title>920a932: 0.4994</title></circle><circle cx="364.8" cy="52.9" r="2.5"><title>7d33f4c: 0.5049</title></circle><circle cx="394.7" cy="51.0" r="2.5"><title>01eec85: 0.5151</title></circle><circle cx="424.6" cy="52.0" r="2.5"><title>d15ebcd: 0.5097</title></circle><circle cx="454.5" cy="55.3" r="2.5"><title>417c735: 0.4914</title></circle><circle cx="484.4" cy="72.8" r="2.5"><title>ef5c691: 0.3945</title></circle><circle cx="514.3" cy="53.8" r="2.5"><title>9b18274: 0.4999</title></circle><circle cx="544.2" cy="52.3" r="2.5"><title>3629d46: 0.5083</title></circle><circle cx="574.1" cy="66.0" r="2.5"><title>1f712b6: 0.4322</title></circle><circle cx="604.0" cy="51.5" r="2.5"><title>666405e: 0.5128</title></circle></g>
</svg>
