<svg xmlns="http://www.w3.org/2000/svg" width="640" height="180" viewBox="0 0 640 180" font-family="sans-serif" font-size="11">
<rect width="640" height="180" fill="#ffffff"/>
<text x="36" y="16" font-size="13" font-weight="bold" fill="#222">bench.hair_1x400_curly_ms</text>
<text x="604" y="16" text-anchor="end" fill="#666">lower is better</text>
<line x1="36" y1="144" x2="604" y2="144" stroke="#ccc"/>
<text x="32" y="40.0" text-anchor="end" fill="#666">2.73</text>
<text x="32" y="144.0" text-anchor="end" fill="#666">0.0000</text>
<text x="36" y="160" fill="#666">1ea8b6d</text>
<text x="604" y="160" text-anchor="end" fill="#666">abf532c</text>
<path d="M36.0,70.5 L57.0,58.5 L78.1,70.4 L99.1,76.3 L120.1,56.6 L141.2,58.3 L162.2,58.1 L183.3,58.6 L204.3,93.7 L225.3,94.7 L246.4,97.9 L267.4,57.2 L288.4,76.3 L309.5,56.6 L330.5,58.0 L351.6,77.0 L372.6,59.0 L393.6,58.4 L414.7,57.2 L435.7,57.8 L456.7,59.0 L477.8,70.7 L498.8,50.7 L519.9,50.1 L540.9,68.2 L561.9,50.9 L583.0,50.6 L604.0,87.6" fill="none" stroke="#2563eb" stroke-width="2"/>
<g fill="#2563eb"><circle cx="36.0" cy="70.5" r="2.5"><title>1ea8b6d: 1.86</title></circle><circle cx="57.0" cy="58.5" r="2.5"><title>d7e2dba: 2.16</title></circle><circle cx="78.1" cy="70.4" r="2.5"><title>6daf1b7: 1.86</title></circle><circle cx="99.1" cy="76.3" r="2.5"><title>08f89a3: 1.71</title></circle><circle cx="120.1" cy="56.6" r="2.5"><title>688fc03: 2.21</title></circle><circle cx="141.2" cy="58.3" r="2.5"><title>52d4ac4: 2.17</title></circle><circle cx="162.2" cy="58.1" r="2.5"><title>37c0ad1: 2.17</title></circle><circle cx="183.3" cy="58.6" r="2.5"><title>f15c3a1: 2.16</title></circle><circle cx="204.3" cy="93.7" r="2.5"><title>f34abdd: 1.27</title></circle><circle cx="225.3" cy="94.7" r="2.5"><title>be90a93: 1.25</title></circle><circle cx="246.4" cy="97.9" r="2.5"><title>9b9ace6: 1.17</title></circle><circle cx="267.4" cy="57.2" r="2.5"><title>1ac71ef: 2.20</title></circle><circle cx="288.4" cy="76.3" r="2.5"><title>f313161: 1.71</title></circle><circle cx="309.5" cy="56.6" r="2.5"><title>5b0ce78: 2.21</title></circle><circle cx="330.5" cy="58.0" r="2.5"><title>6dd27fd: 2.17</title></circle><circle cx="351.6" cy="77.0" r="2.5"><title>48702ed: 1.69</title></circle><circle cx="372.6" cy="59.0" r="2.5"><title>920a932: 2.15</title></circle><circle cx="393.6" cy="58.4" r="2.5"><title>7d33f4c: 2.16</title></circle><circle cx="414.7" cy="57.2" r="2.5"><title>01eec85: 2.20</title></circle><circle cx="435.7" cy="57.8" r="2.5"><title>d15ebcd: 2.18</title></circle><circle cx="456.7" cy="59.0" r="2.5"><title>417c735: 2.15</title></circle><circle cx="477.8" cy="70.7" r="2.5"><title>ef5c691: 1.85</title></circle><circle cx="498.8" cy="50.7" r="2.5"><title>9b18274: 2.36</title></circle><circle cx="519.9" cy="50.1" r="2.5"><title>3629d46: 2.38</title></circle><circle cx="540.9" cy="68.2" r="2.5"><title>1f712b6: 1.92</title></circle><circle cx="561.9" cy="50.9" r="2.5"><title>666405e: 2.36</title></circle><circle cx="583.0" cy="50.6" r="2.5"><title>3af7072: 2.36</title></circle><circle cx="604.0" cy="87.6" r="2.5"><title>abf532c: 1.43</title></circle></g>
</svg>
