<svg xmlns="http://www.w3.org/2000/svg" width="640" height="180" viewBox="0 0 640 180" font-family="sans-serif" font-size="11">
<rect width="640" height="180" fill="#ffffff"/>
<text x="36" y="16" font-size="13" font-weight="bold" fill="#222">stress.peak_rss_mb</text>
<text x="604" y="16" text-anchor="end" fill="#666">lower is better</text>
<line x1="36" y1="144" x2="604" y2="144" stroke="#ccc"/>
<text x="32" y="40.0" text-anchor="end" fill="#666">481</text>
<text x="32" y="144.0" text-anchor="end" fill="#666">0.0000</text>
<text x="36" y="160" fill="#666">09e1a9e</text>
<text x="604" y="160" text-anchor="end" fill="#666">eb9fae6</text>
<path d="M36.0,87.7 L51.4,80.5 L66.7,75.5 L82.1,74.8 L97.4,74.8 L112.8,74.7 L128.1,73.2 L143.5,72.4 L158.8,72.3 L174.2,72.6 L189.5,78.9 L204.9,73.1 L220.2,78.6 L235.6,71.8 L250.9,71.8 L266.3,71.9 L281.6,72.3 L297.0,72.8 L312.3,72.0 L327.7,72.1 L343.0,78.6 L358.4,73.1 L373.7,72.3 L389.1,78.6 L404.4,72.3 L419.8,72.6 L435.1,72.2 L450.5,73.6 L465.8,73.0 L481.2,78.6 L496.5,77.7 L511.9,72.1 L527.2,71.6 L542.6,56.2 L557.9,55.5 L573.3,51.2 L588.6,50.8 L604.0,50.1" fill="none" stroke="#2563eb" stroke-width="2"/>
<g fill="#2563eb"><circle cx="36.0" cy="87.7" r="2.5"><title>09e1a9e: 251</title></circle><circle cx="51.4" cy="80.5" r="2.5"><title>c1360ad: 283</title></circle><circle cx="66.7" cy="75.5" r="2.5"><title>cc93bb6: 305</title></circle><circle cx="82.1" cy="74.8" r="2.5"><title>0f9f717: 308</title></circle><circle cx="97.4" cy="74.8" r="2.5"><title>60ebebc: 308</title></circle><circle cx="112.8" cy="74.7" r="2.5"><title>b997491: 308</title></circle><circle cx="128.1" cy="73.2" r="2.5"><title>9e8a68a: 315</title></circle><circle cx="143.5" cy="72.4" r="2.5"><title>3c58296: 318</title></circle><circle cx="158.8" cy="72.3" r="2.5"><title>17a3e38: 319</title></circle><circle cx="174.2" cy="72.6" r="2.5"><title>9a8bda9: 318</title></circle><circle cx="189.5" cy="78.9" r="2.5"><title>f794eb8: 290</title></circle><circle cx="204.9" cy="73.1" r="2.5"><title>7d49a68: 315</title></circle><circle cx="220.2" cy="78.6" r="2.5"><title>1d042a7: 291</title></circle><circle cx="235.6" cy="71.8" r="2.5"><title>766b2b9: 321</title></circle><circle cx="250.9" cy="71.8" r="2.5"><title>36662ef: 321</title></circle><circle cx="266.3" cy="71.9" r="2.5"><title>ac01df0: 321</title></circle><circle cx="281.6" cy="72.3" r="2.5"><title>6b1898d: 319</title></circle><circle cx="297.0" cy="72.8" r="2.5"><title>099f05b: 317</title></circle><circle cx="312.3" cy="72.0" r="2.5"><title>f661b50: 321</title></circle><circle cx="327.7" cy="72.1" r="2.5"><title>436abba: 320</title></circle><circle cx="343.0" cy="78.6" r="2.5"><title>7b855bb: 291</title></circle><circle cx="358.4" cy="73.1" r="2.5"><title>4fe672c: 316</title></circle><circle cx="373.7" cy="72.3" r="2.5"><title>fefc713: 319</title></circle><circle cx="389.1" cy="78.6" r="2.5"><title>25060fd: 291</title></circle><circle cx="404.4" cy="72.3" r="2.5"><title>dc1e2d4: 319</title></circle><circle cx="419.8" cy="72.6" r="2.5"><title>2436f47: 318</title></circle><circle cx="435.1" cy="72.2" r="2.5"><title>4b50ba0: 320</title></circle><circle cx="450.5" cy="73.6" r="2.5"><title>2ed140d: 313</title></circle><circle cx="465.8" cy="73.0" r="2.5"><title>34fadf2: 316</title></circle><circle cx="481.2" cy="78.6" r="2.5"><title>c88665f: 291</title></circle><circle cx="496.5" cy="77.7" r="2.5"><title>cfcea7d: 295</title></circle><circle cx="511.9" cy="72.1" r="2.5"><title>ac90faa: 320</title></circle><circle cx="527.2" cy="71.6" r="2.5"><title>13cc7c3: 322</title></circle><circle cx="542.6" cy="56.2" r="2.5"><title>0ef01e4: 391</title></circle><circle cx="557.9" cy="55.5" r="2.5"><title>2c9023d: 394</title></circle><circle cx="573.3" cy="51.2" r="2.5"><title>43584eb: 413</title></circle><circle cx="588.6" cy="50.8" r="2.5"><title>5ee83ef: 415</title></circle><circle cx="604.0" cy="50.1" r="2.5"><title>eb9fae6: 418</title></circle></g>
</svg>
