<svg xmlns="http://www.w3.org/2000/svg" width="640" height="180" viewBox="0 0 640 180" font-family="sans-serif" font-size="11">
<rect width="640" height="180" fill="#ffffff"/>
<text x="36" y="16" font-size="13" font-weight="bold" fill="#222">stress.crates.fps_avg</text>
<text x="604" y="16" text-anchor="end" fill="#666">higher is better</text>
<line x1="36" y1="144" x2="604" y2="144" stroke="#ccc"/>
<text x="32" y="40.0" text-anchor="end" fill="#666">26.28</text>
<text x="32" y="144.0" text-anchor="end" fill="#666">0.0000</text>
<text x="36" y="160" fill="#666">09e1a9e</text>
<text x="604" y="160" text-anchor="end" fill="#666">ef387d5</text>
<path d="M36.0,53.9 L46.7,82.4 L57.4,80.8 L68.2,82.0 L78.9,81.0 L89.6,82.3 L100.3,80.2 L111.0,88.5 L121.7,86.8 L132.5,72.7 L143.2,88.6 L153.9,88.9 L164.6,90.2 L175.3,87.6 L186.0,87.4 L196.8,71.8 L207.5,86.7 L218.2,87.4 L228.9,68.0 L239.6,75.8 L250.3,86.6 L261.1,86.9 L271.8,87.1 L282.5,72.1 L293.2,72.0 L303.9,86.2 L314.6,73.2 L325.4,86.2 L336.1,86.5 L346.8,66.5 L357.5,75.7 L368.2,51.6 L378.9,50.1 L389.7,97.8 L400.4,85.1 L411.1,99.1 L421.8,103.3 L432.5,85.1 L443.2,100.3 L454.0,98.9 L464.7,96.2 L475.4,85.0 L486.1,98.1 L496.8,84.8 L507.5,97.7 L518.3,98.7 L529.0,98.1 L539.7,97.6 L550.4,86.0 L561.1,94.3 L571.8,84.6 L582.6,86.1 L593.3,86.3 L604.0,70.0" fill="none" stroke="#2563eb" stroke-width="2"/>
<g fill="#2563eb"><circle cx="36.0" cy="53.9" r="2.5"><title>09e1a9e: 21.93</title></circle><circle cx="46.7" cy="82.4" r="2.5"><title>c1360ad: 15.00</title></circle><circle cx="57.4" cy="80.8" r="2.5"><title>cc93bb6: 15.38</title></circle><circle cx="68.2" cy="82.0" r="2.5"><title>0f9f717: 15.08</title></circle><circle cx="78.9" cy="81.0" r="2.5"><title>60ebebc: 15.33</title></circle><circle cx="89.6" cy="82.3" r="2.5"><title>b997491: 15.01</title></circle><circle cx="100.3" cy="80.2" r="2.5"><title>9e8a68a: 15.52</title></circle><circle cx="111.0" cy="88.5" r="2.5"><title>3c58296: 13.51</title></circle><circle cx="121.7" cy="86.8" r="2.5"><title>17a3e38: 13.93</title></circle><circle cx="132.5" cy="72.7" r="2.5"><title>9a8bda9: 17.34</title></circle><circle cx="143.2" cy="88.6" r="2.5"><title>f794eb8: 13.49</title></circle><circle cx="153.9" cy="88.9" r="2.5"><title>7d49a68: 13.42</title></circle><circle cx="164.6" cy="90.2" r="2.5"><title>1d042a7: 13.10</title></circle><circle cx="175.3" cy="87.6" r="2.5"><title>766b2b9: 13.73</title></circle><circle cx="186.0" cy="87.4" r="2.5"><title>36662ef: 13.76</title></circle><circle cx="196.8" cy="71.8" r="2.5"><title>ac01df0: 17.56</title></circle><circle cx="207.5" cy="86.7" r="2.5"><title>6b1898d: 13.96</title></circle><circle cx="218.2" cy="87.4" r="2.5"><title>099f05b: 13.78</title></circle><circle cx="228.9" cy="68.0" r="2.5"><title>f661b50: 18.50</title></circle><circle cx="239.6" cy="75.8" r="2.5"><title>436abba: 16.59</title></circle><circle cx="250.3" cy="86.6" r="2.5"><title>7b855bb: 13.96</title></circle><circle cx="261.1" cy="86.9" r="2.5"><title>4fe672c: 13.88</title></circle><circle cx="271.8" cy="87.1" r="2.5"><title>fefc713: 13.86</title></circle><circle cx="282.5" cy="72.1" r="2.5"><title>25060fd: 17.49</title></circle><circle cx="293.2" cy="72.0" r="2.5"><title>dc1e2d4: 17.51</title></circle><circle cx="303.9" cy="86.2" r="2.5"><title>2436f47: 14.06</title></circle><circle cx="314.6" cy="73.2" r="2.5"><title>4b50ba0: 17.23</title></circle><circle cx="325.4" cy="86.2" r="2.5"><title>2ed140d: 14.06</title></circle><circle cx="336.1" cy="86.5" r="2.5"><title>34fadf2: 14.00</title></circle><circle cx="346.8" cy="66.5" r="2.5"><title>c88665f: 18.86</title></circle><circle cx="357.5" cy="75.7" r="2.5"><title>cfcea7d: 16.61</title></circle><circle cx="368.2" cy="51.6" r="2.5"><title>ac90faa: 22.48</title></circle><circle cx="378.9" cy="50.1" r="2.5"><title>13cc7c3: 22.85</title></circle><circle cx="389.7" cy="97.8" r="2.5"><title>0ef01e4: 11.25</title></circle><circle cx="400.4" cy="85.1" r="2.5"><title>2c9023d: 14.34</title></circle><circle cx="411.1" cy="99.1" r="2.5"><title>43584eb: 10.92</title></circle><circle cx="421.8" cy="103.3" r="2.5"><title>5ee83ef: 9.92</title></circle><circle cx="432.5" cy="85.1" r="2.5"><title>eb9fae6: 14.33</title></circle><circle cx="443.2" cy="100.3" r="2.5"><title>8cc7549: 10.63</title></circle><circle cx="454.0" cy="98.9" r="2.5"><title>b8da148: 10.97</title></circle><circle cx="464.7" cy="96.2" r="2.5"><title>4c9dede: 11.64</title></circle><circle cx="475.4" cy="85.0" r="2.5"><title>146de31: 14.36</title></circle><circle cx="486.1" cy="98.1" r="2.5"><title>99d6161: 11.18</title></circle><circle cx="496.8" cy="84.8" r="2.5"><title>77f0534: 14.40</title></circle><circle cx="507.5" cy="97.7" r="2.5"><title>3c0114a: 11.26</title></circle><circle cx="518.3" cy="98.7" r="2.5"><title>a08d9a0: 11.03</title></circle><circle cx="529.0" cy="98.1" r="2.5"><title>e2e0d2d: 11.17</title></circle><circle cx="539.7" cy="97.6" r="2.5"><title>cc86f0a: 11.28</title></circle><circle cx="550.4" cy="86.0" r="2.5"><title>c6b3b3d: 14.11</title></circle><circle cx="561.1" cy="94.3" r="2.5"><title>c91d028: 12.11</title></circle><circle cx="571.8" cy="84.6" r="2.5"><title>f1d902c: 14.44</title></circle><circle cx="582.6" cy="86.1" r="2.5"><title>13547e2: 14.09</title></circle><circle cx="593.3" cy="86.3" r="2.5"><title>e5f61cd: 14.04</title></circle><circle cx="604.0" cy="70.0" r="2.5"><title>ef387d5: 18.01</title></circle></g>
</svg>
