<svg xmlns="http://www.w3.org/2000/svg" width="640" height="180" viewBox="0 0 640 180" font-family="sans-serif" font-size="11">
<rect width="640" height="180" fill="#ffffff"/>
<text x="36" y="16" font-size="13" font-weight="bold" fill="#222">stress.walk.fps_avg</text>
<text x="604" y="16" text-anchor="end" fill="#666">higher is better</text>
<line x1="36" y1="144" x2="604" y2="144" stroke="#ccc"/>
<text x="32" y="40.0" text-anchor="end" fill="#666">33.51</text>
<text x="32" y="144.0" text-anchor="end" fill="#666">0.0000</text>
<text x="36" y="160" fill="#666">09e1a9e</text>
<text x="604" y="160" text-anchor="end" fill="#666">4c9dede</text>
<path d="M36.0,56.3 L50.2,58.0 L64.4,56.9 L78.6,62.1 L92.8,61.5 L107.0,65.3 L121.2,83.2 L135.4,90.2 L149.6,90.9 L163.8,73.4 L178.0,93.0 L192.2,92.6 L206.4,92.3 L220.6,91.7 L234.8,92.2 L249.0,74.2 L263.2,90.9 L277.4,91.7 L291.6,69.0 L305.8,77.9 L320.0,90.8 L334.2,91.1 L348.4,90.9 L362.6,75.6 L376.8,74.4 L391.0,89.5 L405.2,75.8 L419.4,90.9 L433.6,91.1 L447.8,63.3 L462.0,76.6 L476.2,51.8 L490.4,50.1 L504.6,103.4 L518.8,91.2 L533.0,102.3 L547.2,108.5 L561.4,90.4 L575.6,102.4 L589.8,103.5 L604.0,97.0" fill="none" stroke="#2563eb" stroke-width="2"/>
<g fill="#2563eb"><circle cx="36.0" cy="56.3" r="2.5"><title>09e1a9e: 27.20</title></circle><circle cx="50.2" cy="58.0" r="2.5"><title>c1360ad: 26.69</title></circle><circle cx="64.4" cy="56.9" r="2.5"><title>cc93bb6: 27.01</title></circle><circle cx="78.6" cy="62.1" r="2.5"><title>0f9f717: 25.42</title></circle><circle cx="92.8" cy="61.5" r="2.5"><title>60ebebc: 25.58</title></circle><circle cx="107.0" cy="65.3" r="2.5"><title>b997491: 24.42</title></circle><circle cx="121.2" cy="83.2" r="2.5"><title>9e8a68a: 18.87</title></circle><circle cx="135.4" cy="90.2" r="2.5"><title>3c58296: 16.70</title></circle><circle cx="149.6" cy="90.9" r="2.5"><title>17a3e38: 16.48</title></circle><circle cx="163.8" cy="73.4" r="2.5"><title>9a8bda9: 21.90</title></circle><circle cx="178.0" cy="93.0" r="2.5"><title>f794eb8: 15.83</title></circle><circle cx="192.2" cy="92.6" r="2.5"><title>7d49a68: 15.94</title></circle><circle cx="206.4" cy="92.3" r="2.5"><title>1d042a7: 16.04</title></circle><circle cx="220.6" cy="91.7" r="2.5"><title>766b2b9: 16.22</title></circle><circle cx="234.8" cy="92.2" r="2.5"><title>36662ef: 16.08</title></circle><circle cx="249.0" cy="74.2" r="2.5"><title>ac01df0: 21.66</title></circle><circle cx="263.2" cy="90.9" r="2.5"><title>6b1898d: 16.47</title></circle><circle cx="277.4" cy="91.7" r="2.5"><title>099f05b: 16.24</title></circle><circle cx="291.6" cy="69.0" r="2.5"><title>f661b50: 23.27</title></circle><circle cx="305.8" cy="77.9" r="2.5"><title>436abba: 20.50</title></circle><circle cx="320.0" cy="90.8" r="2.5"><title>7b855bb: 16.51</title></circle><circle cx="334.2" cy="91.1" r="2.5"><title>4fe672c: 16.41</title></circle><circle cx="348.4" cy="90.9" r="2.5"><title>fefc713: 16.46</title></circle><circle cx="362.6" cy="75.6" r="2.5"><title>25060fd: 21.21</title></circle><circle cx="376.8" cy="74.4" r="2.5"><title>dc1e2d4: 21.61</title></circle><circle cx="391.0" cy="89.5" r="2.5"><title>2436f47: 16.90</title></circle><circle cx="405.2" cy="75.8" r="2.5"><title>4b50ba0: 21.15</title></circle><circle cx="419.4" cy="90.9" r="2.5"><title>2ed140d: 16.47</title></circle><circle cx="433.6" cy="91.1" r="2.5"><title>34fadf2: 16.42</title></circle><circle cx="447.8" cy="63.3" r="2.5"><title>c88665f: 25.03</title></circle><circle cx="462.0" cy="76.6" r="2.5"><title>cfcea7d: 20.91</title></circle><circle cx="476.2" cy="51.8" r="2.5"><title>ac90faa: 28.61</title></circle><circle cx="490.4" cy="50.1" r="2.5"><title>13cc7c3: 29.14</title></circle><circle cx="504.6" cy="103.4" r="2.5"><title>0ef01e4: 12.59</title></circle><circle cx="518.8" cy="91.2" r="2.5"><title>2c9023d: 16.39</title></circle><circle cx="533.0" cy="102.3" r="2.5"><title>43584eb: 12.95</title></circle><circle cx="547.2" cy="108.5" r="2.5"><title>5ee83ef: 11.02</title></circle><circle cx="561.4" cy="90.4" r="2.5"><title>eb9fae6: 16.62</title></circle><circle cx="575.6" cy="102.4" r="2.5"><title>8cc7549: 12.90</title></circle><circle cx="589.8" cy="103.5" r="2.5"><title>b8da148: 12.57</title></circle><circle cx="604.0" cy="97.0" r="2.5"><title>4c9dede: 14.58</title></circle></g>
</svg>
