<svg xmlns="http://www.w3.org/2000/svg" width="640" height="180" viewBox="0 0 640 180" font-family="sans-serif" font-size="11">
<rect width="640" height="180" fill="#ffffff"/>
<text x="36" y="16" font-size="13" font-weight="bold" fill="#222">stress.fps_avg</text>
<text x="604" y="16" text-anchor="end" fill="#666">higher is better</text>
<line x1="36" y1="144" x2="604" y2="144" stroke="#ccc"/>
<text x="32" y="40.0" text-anchor="end" fill="#666">25.10</text>
<text x="32" y="144.0" text-anchor="end" fill="#666">0.0000</text>
<text x="36" y="160" fill="#666">09e1a9e</text>
<text x="604" y="160" text-anchor="end" fill="#666">766b2b9</text>
<path d="M36.0,50.1 L79.7,68.6 L123.4,67.0 L167.1,70.1 L210.8,69.2 L254.5,71.4 L298.2,76.9 L341.8,85.5 L385.5,84.7 L429.2,68.1 L472.9,86.7 L516.6,86.9 L560.3,87.2 L604.0,85.7" fill="none" stroke="#2563eb" stroke-width="2"/>
<g fill="#2563eb"><circle cx="36.0" cy="50.1" r="2.5"><title>09e1a9e: 21.82</title></circle><circle cx="79.7" cy="68.6" r="2.5"><title>c1360ad: 17.53</title></circle><circle cx="123.4" cy="67.0" r="2.5"><title>cc93bb6: 17.90</title></circle><circle cx="167.1" cy="70.1" r="2.5"><title>0f9f717: 17.17</title></circle><circle cx="210.8" cy="69.2" r="2.5"><title>60ebebc: 17.38</title></circle><circle cx="254.5" cy="71.4" r="2.5"><title>b997491: 16.87</title></circle><circle cx="298.2" cy="76.9" r="2.5"><title>9e8a68a: 15.59</title></circle><circle cx="341.8" cy="85.5" r="2.5"><title>3c58296: 13.59</title></circle><circle cx="385.5" cy="84.7" r="2.5"><title>17a3e38: 13.79</title></circle><circle cx="429.2" cy="68.1" r="2.5"><title>9a8bda9: 17.64</title></circle><circle cx="472.9" cy="86.7" r="2.5"><title>f794eb8: 13.32</title></circle><circle cx="516.6" cy="86.9" r="2.5"><title>7d49a68: 13.28</title></circle><circle cx="560.3" cy="87.2" r="2.5"><title>1d042a7: 13.20</title></circle><circle cx="604.0" cy="85.7" r="2.5"><title>766b2b9: 13.56</title></circle></g>
</svg>
