<svg xmlns="http://www.w3.org/2000/svg" width="640" height="180" viewBox="0 0 640 180" font-family="sans-serif" font-size="11">
<rect width="640" height="180" fill="#ffffff"/>
<text x="36" y="16" font-size="13" font-weight="bold" fill="#222">stress.frame_p99_ms</text>
<text x="604" y="16" text-anchor="end" fill="#666">lower is better</text>
<line x1="36" y1="144" x2="604" y2="144" stroke="#ccc"/>
<text x="32" y="40.0" text-anchor="end" fill="#666">146</text>
<text x="32" y="144.0" text-anchor="end" fill="#666">0.0000</text>
<text x="36" y="160" fill="#666">09e1a9e</text>
<text x="604" y="160" text-anchor="end" fill="#666">cc86f0a</text>
<path d="M36.0,99.9 L48.1,82.5 L60.2,84.4 L72.3,82.8 L84.3,83.5 L96.4,82.5 L108.5,82.1 L120.6,72.3 L132.7,77.6 L144.8,90.9 L156.9,74.8 L168.9,72.2 L181.0,73.2 L193.1,75.6 L205.2,76.6 L217.3,91.0 L229.4,77.6 L241.4,76.2 L253.5,93.2 L265.6,86.9 L277.7,78.3 L289.8,77.4 L301.9,77.1 L314.0,91.4 L326.0,92.2 L338.1,77.9 L350.2,89.7 L362.3,77.2 L374.4,77.2 L386.5,89.6 L398.6,84.4 L410.6,101.2 L422.7,101.0 L434.8,63.6 L446.9,80.9 L459.0,63.1 L471.1,50.1 L483.1,81.3 L495.2,62.5 L507.3,62.1 L519.4,67.6 L531.5,81.5 L543.6,60.7 L555.7,81.3 L567.7,63.8 L579.8,61.3 L591.9,62.8 L604.0,63.5" fill="none" stroke="#2563eb" stroke-width="2"/>
<g fill="#2563eb"><circle cx="36.0" cy="99.9" r="2.5"><title>09e1a9e: 59.73</title></circle><circle cx="48.1" cy="82.5" r="2.5"><title>c1360ad: 83.17</title></circle><circle cx="60.2" cy="84.4" r="2.5"><title>cc93bb6: 80.66</title></circle><circle cx="72.3" cy="82.8" r="2.5"><title>0f9f717: 82.78</title></circle><circle cx="84.3" cy="83.5" r="2.5"><title>60ebebc: 81.81</title></circle><circle cx="96.4" cy="82.5" r="2.5"><title>b997491: 83.26</title></circle><circle cx="108.5" cy="82.1" r="2.5"><title>9e8a68a: 83.70</title></circle><circle cx="120.6" cy="72.3" r="2.5"><title>3c58296: 97.03</title></circle><circle cx="132.7" cy="77.6" r="2.5"><title>17a3e38: 89.87</title></circle><circle cx="144.8" cy="90.9" r="2.5"><title>9a8bda9: 71.80</title></circle><circle cx="156.9" cy="74.8" r="2.5"><title>f794eb8: 93.57</title></circle><circle cx="168.9" cy="72.2" r="2.5"><title>7d49a68: 97.16</title></circle><circle cx="181.0" cy="73.2" r="2.5"><title>1d042a7: 95.79</title></circle><circle cx="193.1" cy="75.6" r="2.5"><title>766b2b9: 92.57</title></circle><circle cx="205.2" cy="76.6" r="2.5"><title>36662ef: 91.19</title></circle><circle cx="217.3" cy="91.0" r="2.5"><title>ac01df0: 71.76</title></circle><circle cx="229.4" cy="77.6" r="2.5"><title>6b1898d: 89.80</title></circle><circle cx="241.4" cy="76.2" r="2.5"><title>099f05b: 91.74</title></circle><circle cx="253.5" cy="93.2" r="2.5"><title>f661b50: 68.78</title></circle><circle cx="265.6" cy="86.9" r="2.5"><title>436abba: 77.32</title></circle><circle cx="277.7" cy="78.3" r="2.5"><title>7b855bb: 88.84</title></circle><circle cx="289.8" cy="77.4" r="2.5"><title>4fe672c: 90.08</title></circle><circle cx="301.9" cy="77.1" r="2.5"><title>fefc713: 90.52</title></circle><circle cx="314.0" cy="91.4" r="2.5"><title>25060fd: 71.15</title></circle><circle cx="326.0" cy="92.2" r="2.5"><title>dc1e2d4: 70.05</title></circle><circle cx="338.1" cy="77.9" r="2.5"><title>2436f47: 89.44</title></circle><circle cx="350.2" cy="89.7" r="2.5"><title>4b50ba0: 73.52</title></circle><circle cx="362.3" cy="77.2" r="2.5"><title>2ed140d: 90.44</title></circle><circle cx="374.4" cy="77.2" r="2.5"><title>34fadf2: 90.42</title></circle><circle cx="386.5" cy="89.6" r="2.5"><title>c88665f: 73.60</title></circle><circle cx="398.6" cy="84.4" r="2.5"><title>cfcea7d: 80.62</title></circle><circle cx="410.6" cy="101.2" r="2.5"><title>ac90faa: 57.86</title></circle><circle cx="422.7" cy="101.0" r="2.5"><title>13cc7c3: 58.23</title></circle><circle cx="434.8" cy="63.6" r="2.5"><title>0ef01e4: 109</title></circle><circle cx="446.9" cy="80.9" r="2.5"><title>2c9023d: 85.33</title></circle><circle cx="459.0" cy="63.1" r="2.5"><title>43584eb: 109</title></circle><circle cx="471.1" cy="50.1" r="2.5"><title>5ee83ef: 127</title></circle><circle cx="483.1" cy="81.3" r="2.5"><title>eb9fae6: 84.82</title></circle><circle cx="495.2" cy="62.5" r="2.5"><title>8cc7549: 110</title></circle><circle cx="507.3" cy="62.1" r="2.5"><title>b8da148: 111</title></circle><circle cx="519.4" cy="67.6" r="2.5"><title>4c9dede: 103</title></circle><circle cx="531.5" cy="81.5" r="2.5"><title>146de31: 84.59</title></circle><circle cx="543.6" cy="60.7" r="2.5"><title>99d6161: 113</title></circle><circle cx="555.7" cy="81.3" r="2.5"><title>77f0534: 84.78</title></circle><circle cx="567.7" cy="63.8" r="2.5"><title>3c0114a: 108</title></circle><circle cx="579.8" cy="61.3" r="2.5"><title>a08d9a0: 112</title></circle><circle cx="591.9" cy="62.8" r="2.5"><title>e2e0d2d: 110</title></circle><circle cx="604.0" cy="63.5" r="2.5"><title>cc86f0a: 109</title></circle></g>
</svg>
