<svg xmlns="http://www.w3.org/2000/svg" width="640" height="180" viewBox="0 0 640 180" font-family="sans-serif" font-size="11">
<rect width="640" height="180" fill="#ffffff"/>
<text x="36" y="16" font-size="13" font-weight="bold" fill="#222">stress.crates.fps_avg</text>
<text x="604" y="16" text-anchor="end" fill="#666">higher is better</text>
<line x1="36" y1="144" x2="604" y2="144" stroke="#ccc"/>
<text x="32" y="40.0" text-anchor="end" fill="#666">25.22</text>
<text x="32" y="144.0" text-anchor="end" fill="#666">0.0000</text>
<text x="36" y="160" fill="#666">09e1a9e</text>
<text x="604" y="160" text-anchor="end" fill="#666">436abba</text>
<path d="M36.0,50.1 L65.9,79.8 L95.8,78.1 L125.7,79.4 L155.6,78.3 L185.5,79.7 L215.4,77.5 L245.3,86.1 L275.2,84.3 L305.1,69.7 L334.9,86.2 L364.8,86.5 L394.7,87.9 L424.6,85.2 L454.5,85.1 L484.4,68.8 L514.3,84.2 L544.2,85.0 L574.1,64.8 L604.0,73.0" fill="none" stroke="#2563eb" stroke-width="2"/>
<g fill="#2563eb"><circle cx="36.0" cy="50.1" r="2.5"><title>09e1a9e: 21.93</title></circle><circle cx="65.9" cy="79.8" r="2.5"><title>c1360ad: 15.00</title></circle><circle cx="95.8" cy="78.1" r="2.5"><title>cc93bb6: 15.38</title></circle><circle cx="125.7" cy="79.4" r="2.5"><title>0f9f717: 15.08</title></circle><circle cx="155.6" cy="78.3" r="2.5"><title>60ebebc: 15.33</title></circle><circle cx="185.5" cy="79.7" r="2.5"><title>b997491: 15.01</title></circle><circle cx="215.4" cy="77.5" r="2.5"><title>9e8a68a: 15.52</title></circle><circle cx="245.3" cy="86.1" r="2.5"><title>3c58296: 13.51</title></circle><circle cx="275.2" cy="84.3" r="2.5"><title>17a3e38: 13.93</title></circle><circle cx="305.1" cy="69.7" r="2.5"><title>9a8bda9: 17.34</title></circle><circle cx="334.9" cy="86.2" r="2.5"><title>f794eb8: 13.49</title></circle><circle cx="364.8" cy="86.5" r="2.5"><title>7d49a68: 13.42</title></circle><circle cx="394.7" cy="87.9" r="2.5"><title>1d042a7: 13.10</title></circle><circle cx="424.6" cy="85.2" r="2.5"><title>766b2b9: 13.73</title></circle><circle cx="454.5" cy="85.1" r="2.5"><title>36662ef: 13.76</title></circle><circle cx="484.4" cy="68.8" r="2.5"><title>ac01df0: 17.56</title></circle><circle cx="514.3" cy="84.2" r="2.5"><title>6b1898d: 13.96</title></circle><circle cx="544.2" cy="85.0" r="2.5"><title>099f05b: 13.78</title></circle><circle cx="574.1" cy="64.8" r="2.5"><title>f661b50: 18.50</title></circle><circle cx="604.0" cy="73.0" r="2.5"><title>436abba: 16.59</title></circle></g>
</svg>
